Coordinates
version=1
nRows=26
nColumns=24
inDegrees=yes

Units are S.I. units (second, meters, Newtons, ...)
Angles are in degrees.

endheader
time	pelvis_tilt	pelvis_list	pelvis_rotation	pelvis_tx	pelvis_ty	pelvis_tz	hip_flexion_r	hip_adduction_r	hip_rotation_r	knee_angle_r	ankle_angle_r	subtalar_angle_r	mtp_angle_r	hip_flexion_l	hip_adduction_l	hip_rotation_l	knee_angle_l	ankle_angle_l	subtalar_angle_l	mtp_angle_l	lumbar_extension	lumbar_bending	lumbar_rotation
      7.23000000	      3.58403068	      1.77140192	     -0.61576479	     -0.73949340	      0.87498607	      0.20852836	    -16.26901189	      1.57484814	      5.11767342	    -18.63624173	     15.75591876	      2.21815297	      0.00000000	     16.25579994	      5.38115220	     -0.41678752	     -5.70360504	      1.30313730	     -4.53980577	      0.00000000	    -25.09806896	     -1.69349605	     -2.49603956
      7.24000000	      3.72430745	      2.10480793	     -0.46662006	     -0.72787846	      0.87550566	      0.20708084	    -16.14031878	      1.06543826	      3.86052131	    -20.50393729	     14.60310446	      3.37500794	      0.00000000	     16.17127721	      5.95637065	      0.95339036	     -7.20310253	      0.40612130	     -6.03828448	      0.00000000	    -25.05648469	     -2.08094279	     -2.67119551
      7.25000000	      3.86446578	      2.44036941	     -0.31026937	     -0.71623638	      0.87623847	      0.20558006	    -15.83442090	      0.51258866	      2.48765176	    -22.62934149	     13.10758663	      4.48519209	      0.00000000	     16.03294747	      6.55575873	      2.22837787	     -8.62744442	     -0.34367981	     -7.42635476	      0.00000000	    -24.98938341	     -2.44608017	     -2.89348033
      7.26000000	      3.99011605	      2.76255530	     -0.15184113	     -0.70457806	      0.87710909	      0.20399693	    -15.34106365	     -0.07893354	      1.07251856	    -24.98839242	     11.27555744	      5.52077280	      0.00000000	     15.84221711	      7.15869780	      3.34140805	     -9.95088173	     -0.82195525	     -8.64770042	      0.00000000	    -24.86993633	     -2.75342942	     -3.13250353
      7.27000000	      4.07317168	      3.11121047	      0.05129491	     -0.69314317	      0.87799334	      0.20240154	    -14.61891859	     -0.70299201	     -0.22027357	    -27.59102216	      9.19747835	      6.30247894	      0.00000000	     15.64999253	      7.80534432	      4.43852194	    -11.19542604	     -1.12926425	     -9.79016205	      0.00000000	    -24.75192070	     -3.09104101	     -3.37536724
      7.28000000	      4.10748455	      3.42920701	      0.19612526	     -0.68183341	      0.87885817	      0.20084820	    -13.65613779	     -1.33895650	     -1.32550146	    -30.41157414	      6.82644375	      6.85223335	      0.00000000	     15.39808534	      8.40666393	      5.38845601	    -12.24317001	     -1.13532883	    -10.81563020	      0.00000000	    -24.56467858	     -3.37877314	     -3.56060100
      7.29000000	      4.08136406	      3.81467969	      0.30102403	     -0.67071794	      0.87958008	      0.19939294	    -12.43148816	     -2.08151216	     -2.28479500	    -33.47690134	      4.36261893	      7.25376512	      0.00000000	     15.13490267	      9.04734669	      5.98375477	    -13.13440491	     -0.79426280	    -11.45806320	      0.00000000	    -24.32826280	     -3.75146909	     -3.77954497
      7.30000000	      3.95571418	      4.22575250	      0.34171584	     -0.65986901	      0.88010437	      0.19807727	    -10.90750046	     -2.85446021	     -2.94538818	    -36.74130089	      1.75025213	      7.36413621	      0.00000000	     14.88112889	      9.67867248	      6.40349272	    -13.81631362	     -0.26540449	    -11.95206965	      0.00000000	    -24.00983707	     -4.16952841	     -3.94695710
      7.31000000	      3.75262989	      4.70018209	      0.30090035	     -0.64927993	      0.88040150	      0.19693663	     -9.11558455	     -3.69304938	     -3.33474060	    -40.17965865	     -0.91571835	      7.24723632	      0.00000000	     14.62462973	     10.32835269	      6.57599613	    -14.29452421	      0.44598060	    -12.22620161	      0.00000000	    -23.62492053	     -4.67903868	     -4.07735606
      7.32000000	      3.55357674	      5.27632347	      0.20231505	     -0.63889144	      0.88059650	      0.19600628	     -7.19018528	     -4.60040641	     -3.46071679	    -43.70098587	     -3.64121054	      6.89403428	      0.00000000	     14.26994324	     11.03568204	      6.53520965	    -14.55356052	      1.22183904	    -12.31027017	      0.00000000	    -23.27257227	     -5.33782746	     -4.26496907
      7.33000000	      3.16689029	      5.90698997	      0.02511389	     -0.62874835	      0.88031275	      0.19515666	     -4.89035216	     -5.55053610	     -3.35052152	    -47.34163007	     -6.24278808	      6.40548513	      0.00000000	     14.08234644	     11.76066560	      6.34343056	    -14.69655405	      2.18999976	    -12.14552803	      0.00000000	    -22.69025973	     -6.04604127	     -4.27502190
      7.34000000	      2.89698733	      6.62114364	     -0.19042168	     -0.61884584	      0.88007415	      0.19450426	     -2.62985591	     -6.50143975	     -3.00322259	    -50.92029618	     -8.80433879	      5.69089352	      0.00000000	     13.71877885	     12.53997274	      6.02859702	    -14.69009610	      3.08282296	    -11.94846548	      0.00000000	    -22.30321204	     -6.86631015	     -4.42684065
      7.35000000	      2.60372562	      7.38693634	     -0.40730210	     -0.60901603	      0.87970848	      0.19391759	     -0.29046049	     -7.43686566	     -2.49486153	    -54.38901640	    -11.18569973	      4.96844788	      0.00000000	     13.33783896	     13.35166258	      5.63709929	    -14.57855401	      3.97031000	    -11.59608290	      0.00000000	    -21.86606122	     -7.73355009	     -4.58399807
      7.36000000	      2.30916913	      8.17457992	     -0.57965734	     -0.59925628	      0.87927556	      0.19333228	      2.06221867	     -8.32200334	     -1.88661696	    -57.68013618	    -13.23041674	      4.36346456	      0.00000000	     12.94076428	     14.17989151	      5.23068241	    -14.42731395	      4.85479244	    -11.07910478	      0.00000000	    -21.41937216	     -8.60594967	     -4.72591226
      7.37000000	      2.11037220	      8.92420199	     -0.73325670	     -0.58964222	      0.87895777	      0.19280119	      4.29775709	     -9.07325971	     -1.16301718	    -60.72488726	    -14.81607793	      3.87702887	      0.00000000	     12.43147169	     14.96865448	      4.86214848	    -14.24812230	      5.67397552	    -10.58665635	      0.00000000	    -21.11156889	     -9.41342056	     -4.95514488
      7.38000000	      1.97306750	      9.60746255	     -0.84609277	     -0.58009038	      0.87876406	      0.19227867	      6.41298252	     -9.67636008	     -0.38559470	    -63.47926953	    -15.78030146	      3.65292443	      0.00000000	     11.84380131	     15.69498886	      4.55958416	    -14.05972330	      6.44041405	    -10.09678340	      0.00000000	    -20.88208785	    -10.12117965	     -5.22457015
      7.39000000	      1.91891457	     10.19980337	     -0.90038903	     -0.57057744	      0.87876851	      0.19172578	      8.34687255	    -10.12026350	      0.39759245	    -65.90596764	    -15.99589766	      3.80007235	      0.00000000	     11.14785817	     16.34166780	      4.35393973	    -13.86467390	      7.13406225	     -9.65353895	      0.00000000	    -20.75670885	    -10.69362145	     -5.58787530
      7.40000000	      1.87497091	     10.66324641	     -0.88086258	     -0.56117179	      0.87887778	      0.19113363	     10.17061006	    -10.38004532	      1.13437722	    -68.00225388	    -15.43239707	      4.24788184	      0.00000000	     10.44032075	     16.86621661	      4.30035794	    -13.70780165	      7.84738724	     -9.17781501	      0.00000000	    -20.66260702	    -11.09815303	     -5.90357107
      7.41000000	      1.91346971	     11.01200866	     -0.79985936	     -0.55192194	      0.87921084	      0.19052541	     11.79009063	    -10.48783782	      1.79474205	    -69.74882016	    -14.10731209	      4.90900507	      0.00000000	      9.64705855	     17.28491624	      4.35778407	    -13.58069131	      8.46238264	     -8.78447551	      0.00000000	    -20.71790978	    -11.35076159	     -6.28977519
      7.42000000	      1.94860897	     11.25078131	     -0.70676804	     -0.54273416	      0.87961595	      0.18988181	     13.31892018	    -10.46669215	      2.43127408	    -71.15807898	    -12.18378963	      5.81473108	      0.00000000	      8.84541935	     17.59396803	      4.47859015	    -13.44552773	      9.10462488	     -8.42758820	      0.00000000	    -20.75635502	    -11.47294716	     -6.59900744
      7.43000000	      1.83341580	     11.40902518	     -0.71985599	     -0.53370080	      0.87987589	      0.18947710	     14.98618451	    -10.28067379	      3.21955959	    -72.27281112	     -9.84387816	      6.76076859	      0.00000000	      8.23060500	     17.78547016	      4.45069594	    -13.29529178	      9.70113512	     -8.04753994	      0.00000000	    -20.60120892	    -11.56794166	     -6.74882400
      7.44000000	      1.89492920	     11.40324626	     -0.58417973	     -0.52481263	      0.88054059	      0.18887798	     16.27583810	     -9.96951098	      3.75132780	    -72.95999464	     -7.27067115	      7.64720415	      0.00000000	      7.38464480	     17.83873122	      4.75850444	    -13.14553332	     10.26483072	     -7.73845357	      0.00000000	    -20.72950709	    -11.42540254	     -7.01797530
      7.45000000	      1.90456362	     11.36674636	     -0.54481555	     -0.51607203	      0.88111408	      0.18834961	     17.59592767	     -9.60571283	      4.36789623	    -73.35968591	     -4.65263022	      8.37935481	      0.00000000	      6.61491256	     17.85194165	      4.88599997	    -12.95972545	     10.77671308	     -7.56251738	      0.00000000	    -20.79383619	    -11.26358193	     -7.21121725
      7.46000000	      1.89589562	     11.23285175	     -0.51209352	     -0.50747274	      0.88175334	      0.18794485	     18.85087444	     -9.12203481	      4.93672144	    -73.41429679	     -2.20683165	      8.73309311	      0.00000000	      5.85467292	     17.75117395	      5.15278176	    -12.75303313	     11.24260530	     -7.36838879	      0.00000000	    -20.85965060	    -11.04340772	     -7.27098660
      7.47000000	      1.85395020	     11.10189077	     -0.54027372	     -0.49900608	      0.88228307	      0.18758820	     20.11112499	     -8.65114452	      5.51863523	    -73.20555759	      0.06339918	      8.81843025	      0.00000000	      5.15509817	     17.65328787	      5.26453462	    -12.53269686	     11.64902483	     -7.29458940	      0.00000000	    -20.88631791	    -10.84086631	     -7.35838237
      7.48000000	      1.81502241	     10.87740192	     -0.54760930	     -0.49068069	      0.88285814	      0.18731383	     21.27583567	     -8.08452560	      6.01164177	    -72.67160831	      2.00540062	      8.47343670	      0.00000000	      4.45242669	     17.45303095	      5.52123106	    -12.31673207	     12.06256110	     -7.23594715	      0.00000000	    -20.94917447	    -10.56220640	     -7.36470018
